<svg xmlns="http://www.w3.org/2000/svg" viewBox="0 0 260 440" width="260" height="440" xmlns:c2pa="http://c2pa.org/manifest"><metadata><c2pa:manifest>AAAWgmp1bWIAAAAeanVtZGMycGEAEQAQgAAAqgA4m3EDYzJwYQAAABZcanVtYgAAAEdqdW1kYzJtYQARABCAAACqADibcQN1cm46YzJwYTo5MTU0OTY4Yy04ZTk4LTRhY2UtOTA1MC05ODQ2NmY2OGM5ZjYAAAADl2p1bWIAAAApanVtZGMyYXMAEQAQgAAAqgA4m3EDYzJwYS5hc3NlcnRpb25zAAAAALxqdW1iAAAARGp1bWRjYm9yABEAEIAAAKoAOJtxE2MycGEuaW5ncmVkaWVudC52MwAAAAAYYzJzaPhrIqFr4e++mUUa9QRZHp8AAABwY2JvcqNpZGM6Zm9ybWF0bWltYWdlL3N2Zyt4bWxqaW5zdGFuY2VJRHgseG1wOmlpZDpjOWFjNDQxOS0wNjMyLTQwM2QtOTY0NS02ODk2MzRiMTQzOThscmVsYXRpb25zaGlwaHBhcmVudE9mAAAB4mp1bWIAAABBanVtZGNib3IAEQAQgAAAqgA4m3ETYzJwYS5hY3Rpb25zLnYyAAAAABhjMnNoXT58WgqhovibR/pf+vSZ1wAAAZljYm9yomdhY3Rpb25zgqJmYWN0aW9ua2MycGEub3BlbmVkanBhcmFtZXRlcnOha2luZ3JlZGllbnRzgaJjdXJseC1zZWxmI2p1bWJmPWMycGEuYXNzZXJ0aW9ucy9jMnBhLmluZ3JlZGllbnQudjNkaGFzaFggFyD76T7LM1M1V++nGZr8pMzIgt+PvePYMgiN+9z48J2kZmFjdGlvbngdY29tLmFudGhyb3BpYy5jbGF1ZGUucHJvdmlkZWRqcGFyYW1ldGVyc6F4H2NvbS5hbnRocm9waWMub3JpZ2luLWNvbmZpZGVuY2VndW5rbm93bmtkZXNjcmlwdGlvbnhmQ2xhdWRlIHByb3ZpZGVkIHRoaXMgZmlsZSBhdCB0aGUgcmVxdWVzdCBvZiBhIHVzZXIgYW5kIG1heSBoYXZlIGNyZWF0ZWQgb3IgbW9kaWZpZWQgdGhlIGZpbGUgY29udGVudHMubXNvZnR3YXJlQWdlbnShZG5hbWVmQ2xhdWRlcmFsbEFjdGlvbnNJbmNsdWRlZPUAAADIanVtYgAAAEBqdW1kY2JvcgARABCAAACqADibcRNjMnBhLmhhc2guZGF0YQAAAAAYYzJzaF1AFPIzJPWY12wddXjLdogAAACAY2JvcqVjYWxnZnNoYTI1NmNwYWRNAAAAAAAAAAAAAAAAAGRoYXNoWCBkkvwrX8YFXlf9wbS1igCF+eNGsN0T9Jxinr2ly8eCJmRuYW1lbmp1bWJmIG1hbmlmZXN0amV4Y2x1c2lvbnOBomVzdGFydBiWZmxlbmd0aBkeBAAAAj5qdW1iAAAAJ2p1bWRjMmNsABEAEIAAAKoAOJtxA2MycGEuY2xhaW0udjIAAAACD2Nib3KlY2FsZ2ZzaGEyNTZpc2lnbmF0dXJleE1zZWxmI2p1bWJmPS9jMnBhL3VybjpjMnBhOjkxNTQ5NjhjLThlOTgtNGFjZS05MDUwLTk4NDY2ZjY4YzlmNi9jMnBhLnNpZ25hdHVyZWppbnN0YW5jZUlEeCx4bXA6aWlkOmEyMmI4ZDg2LTM0N2ItNDgyOC1hMzE1LTNhNWFkZjlhMzkzMnJjcmVhdGVkX2Fzc2VydGlvbnODomN1cmx4LXNlbGYjanVtYmY9YzJwYS5hc3NlcnRpb25zL2MycGEuaW5ncmVkaWVudC52M2RoYXNoWCAXIPvpPsszUzVX76cZmvykzMiC34+949gyCI373PjwnaJjdXJseCpzZWxmI2p1bWJmPWMycGEuYXNzZXJ0aW9ucy9jMnBhLmFjdGlvbnMudjJkaGFzaFggfferGglUVsbCIyHp9JNUsVlGzJNEnbl8rBz28rvshgGiY3VybHgpc2VsZiNqdW1iZj1jMnBhLmFzc2VydGlvbnMvYzJwYS5oYXNoLmRhdGFkaGFzaFgg1PYDiiwDD8SI3be2IKf2GYCBRjgVXTFMBRhr73IfClB0Y2xhaW1fZ2VuZXJhdG9yX2luZm+jZG5hbWVvQW50aHJvcGljIEZpbGVzZ3ZlcnNpb25lMS4wLjBrc3BlY1ZlcnNpb25lMi40LjAAABA4anVtYgAAAChqdW1kYzJjcwARABCAAACqADibcQNjMnBhLnNpZ25hdHVyZQAAABAIY2JvctKEWQISogEmGCFZAgowggIGMIIBjaADAgECAhRA5aAK7sI50L64g/oGQgU9Z1UTADAKBggqhkjOPQQDAzBJMRcwFQYDVQQKEw5BbnRocm9waWMsIFBCQzEuMCwGA1UEAxMlQW50aHJvcGljIENvbnRlbnQgQ3JlZGVudGlhbHMgUm9vdCBDQTAeFw0yNjA4MDcxODQzNTZaFw0yODA4MDYxOTQzNTZaMEQxFzAVBgNVBAoTDkFudGhyb3BpYywgUEJDMSkwJwYDVQQDEyBBbnRocm9waWMgQ2xhdWRlIENvbnRlbnQgU2lnbmluZzBZMBMGByqGSM49AgEGCCqGSM49AwEHA0IABJh6CmvLUBgFFNU0vUKlOVtE6djd17L5SuwX0LemFisBM3dkd/3cyjxFA3Qo5S46fX0/ihY0VZ7mfb9KF703t5OjWDBWMA4GA1UdDwEB/wQEAwIHgDAVBgNVHSUEDjAMBgorBgEEAYPoXgIBMAwGA1UdEwEB/wQCMAAwHwYDVR0jBBgwFoAUzlHiBIFOZFsj+OPEz5o+nMHXXMIwCgYIKoZIzj0EAwMDZwAwZAIwMXMdFJ4BetLLVY7ORuE9noqbbAZOZn/aArXyTwFAZfKrPzxF2vPoJNf1+UCdg1XGAjBwX1zd9WGqYkqmL5SFqw1QySjr1zJfpJM9+1rdDwSPLMOPOjKuiXjoU/pUUeG9RwmhY3BhZFkNngAAAAAAAAAAAAAAAAAAAAAAAAAAAAAAAAAAAAAAAAAAAAAAAAAAAAAAAAAAAAAAAAAAAAAAAAAAAAAAAAAAAAAAAAAAAAAAAAAAAAAAAAAAAAAAAAAAAAAAAAAAAAAAAAAAAAAAAAAAAAAAAAAAAAAAAAAAAAAAAAAAAAAAAAAAAAAAAAAAAAAAAAAAAAAAAAAAAAAAAAAAAAAAAAAAAAAAAAAAAAAAAAAAAAAAAAAAAAAAAAAAAAAAAAAAAAAAAAAAAAAAAAAAAAAAAAAAAAAAAAAAAAAAAAAAAAAAAAAAAAAAAAAAAAAAAAAAAAAAAAAAAAAAAAAAAAAAAAAAAAAAAAAAAAAAAAAAAAAAAAAAAAAAAAAAAAAAAAAAAAAAAAAAAAAAAAAAAAAAAAAAAAAAAAAAAAAAAAAAAAAAAAAAAAAAAAAAAAAAAAAAAAAAAAAAAAAAAAAAAAAAAAAAAAAAAAAAAAAAAAAAAAAAAAAAAAAAAAAAAAAAAAAAAAAAAAAAAAAAAAAAAAAAAAAAAAAAAAAAAAAAAAAAAAAAAAAAAAAAAAAAAAAAAAAAAAAAAAAAAAAAAAAAAAAAAAAAAAAAAAAAAAAAAAAAAAAAAAAAAAAAAAAAAAAAAAAAAAAAAAAAAAAAAAAAAAAAAAAAAAAAAAAAAAAAAAAAAAAAAAAAAAAAAAAAAAAAAAAAAAAAAAAAAAAAAAAAAAAAAAAAAAAAAAAAAAAAAAAAAAAAAAAAAAAAAAAAAAAAAAAAAAAAAAAAAAAAAAAAAAAAAAAAAAAAAAAAAAAAAAAAAAAAAAAAAAAAAAAAAAAAAAAAAAAAAAAAAAAAAAAAAAAAAAAAAAAAAAAAAAAAAAAAAAAAAAAAAAAAAAAAAAAAAAAAAAAAAAAAAAAAAAAAAAAAAAAAAAAAAAAAAAAAAAAAAAAAAAAAAAAAAAAAAAAAAAAAAAAAAAAAAAAAAAAAAAAAAAAAAAAAAAAAAAAAAAAAAAAAAAAAAAAAAAAAAAAAAAAAAAAAAAAAAAAAAAAAAAAAAAAAAAAAAAAAAAAAAAAAAAAAAAAAAAAAAAAAAAAAAAAAAAAAAAAAAAAAAAAAAAAAAAAAAAAAAAAAAAAAAAAAAAAAAAAAAAAAAAAAAAAAAAAAAAAAAAAAAAAAAAAAAAAAAAAAAAAAAAAAAAAAAAAAAAAAAAAAAAAAAAAAAAAAAAAAAAAAAAAAAAAAAAAAAAAAAAAAAAAAAAAAAAAAAAAAAAAAAAAAAAAAAAAAAAAAAAAAAAAAAAAAAAAAAAAAAAAAAAAAAAAAAAAAAAAAAAAAAAAAAAAAAAAAAAAAAAAAAAAAAAAAAAAAAAAAAAAAAAAAAAAAAAAAAAAAAAAAAAAAAAAAAAAAAAAAAAAAAAAAAAAAAAAAAAAAAAAAAAAAAAAAAAAAAAAAAAAAAAAAAAAAAAAAAAAAAAAAAAAAAAAAAAAAAAAAAAAAAAAAAAAAAAAAAAAAAAAAAAAAAAAAAAAAAAAAAAAAAAAAAAAAAAAAAAAAAAAAAAAAAAAAAAAAAAAAAAAAAAAAAAAAAAAAAAAAAAAAAAAAAAAAAAAAAAAAAAAAAAAAAAAAAAAAAAAAAAAAAAAAAAAAAAAAAAAAAAAAAAAAAAAAAAAAAAAAAAAAAAAAAAAAAAAAAAAAAAAAAAAAAAAAAAAAAAAAAAAAAAAAAAAAAAAAAAAAAAAAAAAAAAAAAAAAAAAAAAAAAAAAAAAAAAAAAAAAAAAAAAAAAAAAAAAAAAAAAAAAAAAAAAAAAAAAAAAAAAAAAAAAAAAAAAAAAAAAAAAAAAAAAAAAAAAAAAAAAAAAAAAAAAAAAAAAAAAAAAAAAAAAAAAAAAAAAAAAAAAAAAAAAAAAAAAAAAAAAAAAAAAAAAAAAAAAAAAAAAAAAAAAAAAAAAAAAAAAAAAAAAAAAAAAAAAAAAAAAAAAAAAAAAAAAAAAAAAAAAAAAAAAAAAAAAAAAAAAAAAAAAAAAAAAAAAAAAAAAAAAAAAAAAAAAAAAAAAAAAAAAAAAAAAAAAAAAAAAAAAAAAAAAAAAAAAAAAAAAAAAAAAAAAAAAAAAAAAAAAAAAAAAAAAAAAAAAAAAAAAAAAAAAAAAAAAAAAAAAAAAAAAAAAAAAAAAAAAAAAAAAAAAAAAAAAAAAAAAAAAAAAAAAAAAAAAAAAAAAAAAAAAAAAAAAAAAAAAAAAAAAAAAAAAAAAAAAAAAAAAAAAAAAAAAAAAAAAAAAAAAAAAAAAAAAAAAAAAAAAAAAAAAAAAAAAAAAAAAAAAAAAAAAAAAAAAAAAAAAAAAAAAAAAAAAAAAAAAAAAAAAAAAAAAAAAAAAAAAAAAAAAAAAAAAAAAAAAAAAAAAAAAAAAAAAAAAAAAAAAAAAAAAAAAAAAAAAAAAAAAAAAAAAAAAAAAAAAAAAAAAAAAAAAAAAAAAAAAAAAAAAAAAAAAAAAAAAAAAAAAAAAAAAAAAAAAAAAAAAAAAAAAAAAAAAAAAAAAAAAAAAAAAAAAAAAAAAAAAAAAAAAAAAAAAAAAAAAAAAAAAAAAAAAAAAAAAAAAAAAAAAAAAAAAAAAAAAAAAAAAAAAAAAAAAAAAAAAAAAAAAAAAAAAAAAAAAAAAAAAAAAAAAAAAAAAAAAAAAAAAAAAAAAAAAAAAAAAAAAAAAAAAAAAAAAAAAAAAAAAAAAAAAAAAAAAAAAAAAAAAAAAAAAAAAAAAAAAAAAAAAAAAAAAAAAAAAAAAAAAAAAAAAAAAAAAAAAAAAAAAAAAAAAAAAAAAAAAAAAAAAAAAAAAAAAAAAAAAAAAAAAAAAAAAAAAAAAAAAAAAAAAAAAAAAAAAAAAAAAAAAAAAAAAAAAAAAAAAAAAAAAAAAAAAAAAAAAAAAAAAAAAAAAAAAAAAAAAAAAAAAAAAAAAAAAAAAAAAAAAAAAAAAAAAAAAAAAAAAAAAAAAAAAAAAAAAAAAAAAAAAAAAAAAAAAAAAAAAAAAAAAAAAAAAAAAAAAAAAAAAAAAAAAAAAAAAAAAAAAAAAAAAAAAAAAAAAAAAAAAAAAAAAAAAAAAAAAAAAAAAAAAAAAAAAAAAAAAAAAAAAAAAAAAAAAAAAAAAAAAAAAAAAAAAAAAAAAAAAAAAAAAAAAAAAAAAAAAAAAAAAAAAAAAAAAAAAAAAAAAAAAAAAAAAAAAAAAAAAAAAAAAAAAAAAAAAAAAAAAAAAAAAAAAAAAAAAAAAAAAAAAAAAAAAAAAAAAAAAAAAAAAAAAAAAAAAAAAAAAAAAAAAAAAAAAAAAAAAAAAAAAAAAAAAAAAAAAAAAAAAAAAAAAAAAAAAAAAAAAAAAAAAAAAAAAAAAAAAAAAAAAAAAAAAAAAAAAAAAAAAAAAAAAAAAAAAAAAAAAAAAAAAAAAAAAAAAAAAAAAAAAAAAAAAAAAAAAAAAAAAAAAAAAAAAAAAAAAAAAAAAAAAAAAAAAAAAAAAAAAAAAAAAAAAAAAAAAAAAAAAAAAAAAAAAAAAAAAAAAAAAAAAAAAAAAAAAAAAAAAAAAAAAAAAAAAAAAAAAAAAAAAAAAAAAAAAAAAAAAAAAAAAAAAAAAAAAAAAAAAAAAAAAAAAAAAAAAAAAAAAAAAAAAAAAAAAAAAAAAAAAAAAAAAAAAAAAAAAAAAAAAAAAAAAAAAAAAAAAAAAAAAAAAAAAAAAAAAAAAAAAAAAAAAAAAAAAAAAAAAAAAAAAAAAAAAAAAAAAAAAAAAAAAAAAAAAAAAAAAAAAAAAAAAAAAAAAAAAAAAAAAAAAAAAAAAAAAAAAAAAAAAAAAAAAAAAAAAAAAAAAAAAAAAAAAAAAAAAAAAAAAAAAAAAAAAAAAAAAAAAAAAAAAAAAAAAAAAAAAAAAAAAAAAAAAAAAAAAAAAAAAAAAAAAAAAAAAAAAAAAAAAAAAAAAAAAAAAAAAAAAAAAAAAAAAAAAAAAAAAAAAAAAAAAAAAAAAAAAAAAAAAAAAAAAAAAAAAAAAAAAAAAAAAAAAAAAAAAAAAAAAAAAAAAAAAAAAAAAAAAAAAAAAAAAAAAAAAAAAAAAAAAAAAAAAAAAAAAAAAAAAAAAAAAAAAAAAAAAAAAAAAAAAAAAAAAAAAAAAAAAAAAAAAAAAAAAAAAAAAAAAAAAAAAAAAAAAAAAAAAAAAAAAAAAAAAAAAAAAAAAAAAAAAAAAAAAAAAAAAAAAAAAAAAAAAAAAAAAAAAAAAAAAAAAAAAAAAAAAAAAAAAAAAAAAAAAAAAAAAAAAAAAAAAAAAAAAAAAAAAAAAAAAAAAAAAAAAAAAAAAAAAAAAAAAAAAAAAAAAAAAAAAAAAAAAAAAAAAAAAAAAAAAAAAAAAAAAAAAAAAAAAAAAAAAAAAAAAAAAAAAAAAAAAAAAAAAAAAAAAAAAAAAAAAAAAAAAAAAAAAAAAAAAAAAAAAAAAAAAAAAAAAAAAAAAAAAAAAAAAAAAAAAAAAAAAAAAAAAAAAAAAAAAAAAAAAAAAAAAAAAAAAAAAAAAAAAAAAAAAAAAAAAAAAAAAAAAAAAAAAAAAAAAAAAAAAAAAAAAAAAAAAAAAAAAAAAAAAAAAAAAAAAAAAAAAAAAAAAAAAAAAAAAAAAAAAAAAAAAAAAAAAAAAAAAAAAAAAAAAAAAAAAAAAAAAAAPZYQDPfilkgbNZMG0QvSXlK9y/urxy8P4dSngTRt35E774u9/0XzzF+btmQ0B4ogQRcPmBc9+BWCZ5FhOSKkV8nPHk=</c2pa:manifest></metadata>
@DEFS@
<g stroke="#0b0908" stroke-width="2" stroke-linejoin="round" stroke-linecap="round">
 <!-- machado feito de placa de trânsito -->
 <path d="M210,110 L196,400" stroke="#0b0908" stroke-width="8"/><path d="M210,110 L196,400" stroke="#4a4a46" stroke-width="5"/>
 <path d="M208,112 L246,96 L254,150 L206,148Z" fill="#a08a2a"/>
 <path d="M214,120 L244,108 M212,132 L248,124 M210,144 L250,138" stroke="#2a2410" stroke-width="3"/>
 <path d="M246,96 L254,150" fill="none" stroke="#e0e0d0" stroke-width="2"/>
 <!-- pernas: calça cargo rasgada, tala de metal -->
 <path d="M96,290 L88,388 L114,388 L122,296Z" fill="#3a3e2a"/><path d="M138,296 L146,388 L172,388 L164,290Z" fill="#2c2f20"/>
 <path d="M90,330 L116,330 L116,338 L90,338Z M92,356 L114,356 L114,364 L92,364Z" fill="#7a7a74"/><path d="M103,322 L103,372" stroke="#7a7a74" stroke-width="4"/>
 <path d="M148,320 l12,2 l-2,10 l-11,-3z" fill="#6a7058" stroke-width="1"/>
 <path d="M82,380 L80,406 L118,406 L116,380Z" fill="#1a1612"/><path d="M144,380 L142,406 L180,406 L176,380Z" fill="#141210"/>
 <!-- tronco largo, curvado, pele cinza-esverdeada -->
 <path d="M80,130 Q130,112 180,130 L176,212 Q130,226 86,212Z" fill="#6a7058"/>
 <path d="M130,118 Q160,118 180,130 L176,212 Q152,222 130,222Z" fill="#4e5442" stroke="none"/>
 <g filter="url(#glow)" fill="none" stroke="#9cff3a" stroke-width="2"><path d="M108,140 Q116,160 110,180 Q106,196 114,208"/><path d="M116,160 L128,166"/></g>
 <path d="M140,150 L162,150 M144,146 L144,154 M150,146 L150,154 M156,146 L156,154" stroke="#2a2a20" stroke-width="1.5"/>
 <!-- colete de couro com tachas e pneu no ombro -->
 <path d="M80,130 L104,124 L110,214 L86,212Z" fill="#2a2420"/><path d="M180,130 L156,124 L150,214 L176,212Z" fill="#1e1a17"/>
 <g fill="#b8b2a8" stroke-width="1"><circle cx="92" cy="150" r="2"/><circle cx="94" cy="170" r="2"/><circle cx="96" cy="190" r="2"/><circle cx="168" cy="150" r="2"/><circle cx="166" cy="170" r="2"/></g>
 <path d="M180,212 L176,130" fill="none" stroke="#ff8a3a" stroke-width="2"/>
 <rect x="80" y="206" width="100" height="12" fill="#1a1612"/><rect x="122" y="204" width="16" height="16" fill="#7a7a74"/>
 <path d="M150,112 Q176,98 196,118 L190,146 Q170,130 154,138Z" fill="#1a1a1a"/><path d="M158,116 L186,120 M156,126 L188,132" stroke="#3a3a3a" stroke-width="2"/>
 <!-- braço esquerdo: mutação gigante -->
 <path d="M84,130 C50,130 30,170 28,214 C24,250 34,276 52,290 L84,290 C86,262 76,240 82,214 C88,190 100,160 104,140Z" fill="#7a8060"/>
 <path d="M52,180 C40,210 40,250 52,290 L84,290 C86,262 76,240 82,214Z" fill="#5a6048" stroke="none"/>
 <g fill="#8a9068"><circle cx="54" cy="160" r="10"/><circle cx="40" cy="200" r="8"/><circle cx="70" cy="186" r="7"/></g>
 <g filter="url(#glow)" stroke="none" fill="#9cff3a"><circle cx="56" cy="158" r="3"/><circle cx="42" cy="236" r="3"/><circle cx="72" cy="230" r="2.5"/><circle cx="38" cy="200" r="2"/></g>
 <g fill="#d8d0b8"><path d="M50,290 L44,314 L56,296Z"/><path d="M62,292 L60,318 L70,296Z"/><path d="M74,292 L78,316 L82,294Z"/></g>
 <!-- braço direito: placas soldadas e rebitadas -->
 <path d="M176,130 C194,146 204,180 204,214 L186,220 C184,190 180,164 166,146Z" fill="#4e5442"/>
 <path d="M178,140 L196,150 L200,182 L182,184Z" fill="#6a6a64"/><path d="M184,190 L202,192 L204,214 L186,218Z" fill="#5a5a54"/>
 <g fill="#2a2a28" stroke="none"><circle cx="182" cy="146" r="1.5"/><circle cx="194" cy="154" r="1.5"/><circle cx="196" cy="178" r="1.5"/><circle cx="188" cy="196" r="1.5"/><circle cx="198" cy="210" r="1.5"/></g>
 <path d="M196,148 l8,-8 l0,10z" fill="#8a8a84"/>
 <path d="M188,216 L210,212 L212,232 L192,234Z" fill="#4e5442"/>
 <!-- cabeça baixa, respirador, moicano -->
 <ellipse cx="128" cy="100" rx="17" ry="18" fill="#6a7058"/>
 <path d="M128,82 C138,82 145,90 145,100 C145,112 138,118 128,118Z" fill="#4e5442" stroke="none"/>
 <path d="M122,84 L118,62 L126,76 L128,56 L132,76 L140,62 L136,84Z" fill="#2a3a1a"/>
 <g filter="url(#glow)" stroke="none" fill="#9cff3a"><path d="M118,62 l3,6 l-5,0z"/><path d="M128,56 l2,7 l-5,0z"/><path d="M140,62 l-1,7 l-4,-2z"/></g>
 <g filter="url(#glow)" stroke="none" fill="#e8ff5a"><circle cx="121" cy="96" r="3.5"/><circle cx="135" cy="97" r="2"/></g>
 <path d="M114,104 L142,104 L140,118 L116,118Z" fill="#141414"/>
 <circle cx="112" cy="112" r="6" fill="#3a3a38"/><circle cx="144" cy="112" r="6" fill="#2e2e2c"/>
 <path d="M110,112 L114,112 M142,112 L146,112" stroke-width="1"/>
</g>
</svg>
